<svg width="50" height="50" viewBox="0 0 50 50" fill="none" xmlns="http://www.w3.org/2000/svg">
<circle cx="25" cy="25" r="25" fill="#43A047" fill-opacity="0.3"/>
<path d="M23 37C24.1045 37 25 36.1045 25 35C25 33.8954 24.1045 32.9999 23 32.9999C21.8954 32.9999 20.9999 33.8954 20.9999 35C20.9999 36.1045 21.8954 37 23 37Z" stroke="#43A047" stroke-width="2" stroke-miterlimit="10" stroke-linecap="round" stroke-linejoin="round"/>
<path d="M31.8 37C32.9046 37 33.8 36.1045 33.8 35C33.8 33.8954 32.9046 32.9999 31.8 32.9999C30.6954 32.9999 29.8 33.8954 29.8 35C29.8 36.1045 30.6954 37 31.8 37Z" stroke="#43A047" stroke-width="2" stroke-miterlimit="10" stroke-linecap="round" stroke-linejoin="round"/>
<path d="M31.8 33H22.2C21.0956 33 20.2 32.1044 20.2 31C20.2 29.8956 21.0956 29 22.2 29" stroke="#43A047" stroke-width="2" stroke-miterlimit="10" stroke-linecap="round" stroke-linejoin="round"/>
<path d="M37 19.4H17.8C17.8 19.4 18.9628 24.0516 19.6696 26.8792C19.9812 28.1256 21.1012 29 22.386 29C25.0996 29 29.7004 29 32.414 29C33.6988 29 34.8188 28.1256 35.1304 26.8792C35.8372 24.0516 37 19.4 37 19.4Z" stroke="#43A047" stroke-width="2" stroke-miterlimit="10" stroke-linecap="round" stroke-linejoin="round"/>
<path d="M17.8 19.4C17.8 19.4 17.384 17.7356 16.976 16.1044C16.52 14.28 14.8808 13 13 13" stroke="#43A047" stroke-width="2" stroke-miterlimit="10" stroke-linecap="round" stroke-linejoin="round"/>
</svg>
