<svg width="162" height="57" viewBox="0 0 162 57" fill="none" xmlns="http://www.w3.org/2000/svg">
<path d="M155.123 33.0591H154.367V56.3356H155.123V33.0591Z" fill="#388E3C"/>
<path d="M155.123 43.6206L154.39 43.4144C155.352 40.0008 157.391 36.8851 160.255 34.4108C160.324 34.342 160.851 33.9297 160.943 33.8839L161.011 34.7773C160.943 34.8232 160.828 34.9377 160.759 34.9835C158.01 37.3662 156.063 40.3445 155.123 43.6206Z" fill="#388E3C"/>
<path d="M154.413 43.6206L155.146 43.4144C154.184 40.0008 152.145 36.8851 149.281 34.4108C149.213 34.342 148.686 33.9297 148.594 33.8839L148.525 34.7773C148.594 34.8232 148.709 34.9377 148.777 34.9835C151.526 37.3662 153.474 40.3445 154.413 43.6206Z" fill="#388E3C"/>
<path d="M154.963 0.0228882L154.734 30.1266C150.541 26.461 147.907 21.1459 147.907 15.1893C147.884 9.11814 150.633 3.68848 154.963 0.0228882Z" fill="#43A047"/>
<path d="M161.699 15.0289C161.699 20.871 159.156 26.1403 155.078 29.8059C154.986 29.8975 154.871 29.9891 154.757 30.0808L154.734 30.1037L154.963 0C155.078 0.0916399 155.169 0.183276 155.284 0.274915C159.247 3.96342 161.699 9.27854 161.699 15.0289Z" fill="#388E3C"/>
<path d="M154.711 30.1037L154.734 30.0808C154.734 30.0808 154.734 30.1037 154.711 30.1037Z" fill="#CC0D0D"/>
<path d="M0 9.20984C0.435289 9.25566 0.893489 9.30148 1.3746 9.3473C1.78698 9.39312 2.24517 9.41603 2.7721 9.43894C3.27612 9.43894 3.82596 9.46185 4.3758 9.46185C5.22347 9.46185 6.39188 9.37021 7.83521 9.14111C9.30145 8.93492 11.1572 8.82037 13.4023 8.82037C15.51 8.82037 17.4574 9.1182 19.2444 9.73677C21.0313 10.3553 22.5892 11.2488 23.8951 12.4401C25.201 13.6315 26.2319 15.0748 26.965 16.7701C27.6981 18.4655 28.0647 20.3899 28.0647 22.5664C28.0647 25.4759 27.492 27.996 26.3235 30.1266C25.1551 32.2573 23.5973 33.9755 21.6499 35.2814C19.7026 36.5872 17.4574 37.4807 14.9144 37.9618C12.3714 38.443 9.71382 38.4659 6.94172 38.0535V43.5061C6.94172 45.3618 6.96463 46.9884 7.03336 48.3859C7.07918 49.7834 7.14791 50.9747 7.23955 51.9827C7.30828 52.9908 7.42283 53.8385 7.53738 54.5028C7.65193 55.1901 7.78939 55.7629 7.90394 56.2211V56.3585H0.0229079V56.2211C0.160368 55.7629 0.274917 55.1901 0.412377 54.5028C0.526926 53.8155 0.641478 52.9908 0.733118 51.9827C0.824758 50.9747 0.893486 49.7834 0.939306 48.3859C0.985126 46.9884 1.00804 45.3618 1.00804 43.5061V22.1082C1.00804 20.2524 0.985126 18.6258 0.939306 17.2283C0.893486 15.8308 0.824758 14.6395 0.733118 13.6086C0.641478 12.6005 0.549836 11.7528 0.412377 11.0655C0.297827 10.3782 0.160368 9.8055 0.0229079 9.3473V9.20984H0ZM6.94172 35.4647C9.09525 35.8541 11.0426 35.9 12.8296 35.5792C14.6166 35.2585 16.1515 34.5712 17.4345 33.5402C18.7174 32.5093 19.7026 31.0889 20.4357 29.3248C21.1459 27.5607 21.5125 25.3843 21.5125 22.8184C21.5125 21.0543 21.3292 19.4277 20.9626 17.9614C20.5961 16.4952 20.0462 15.2581 19.3131 14.25C18.58 13.242 17.6636 12.4401 16.541 11.8903C15.4184 11.3405 14.1125 11.0426 12.6234 11.0426C11.6841 11.0426 10.8593 11.0885 10.1491 11.1572C9.4389 11.2259 8.86615 11.3176 8.38505 11.4092C7.8123 11.5237 7.3541 11.6383 6.96463 11.7758V35.4647H6.94172Z" fill="black"/>
<path d="M35.0294 20.0691C35.0294 18.2134 35.0065 16.5868 34.9377 15.1893C34.8919 13.7918 34.8232 12.6005 34.7315 11.5924C34.6399 10.5844 34.5482 9.73671 34.4337 9.07232C34.3191 8.38502 34.1817 7.83518 34.0671 7.35407V7.21661H41.6732V7.35407C41.5358 7.81227 41.4212 8.38502 41.3067 9.07232C41.1921 9.75962 41.1005 10.5844 41.0089 11.5924C40.9172 12.6005 40.8485 13.7918 40.8027 15.1893C40.7569 16.5868 40.7339 18.2134 40.7339 20.0691V43.4831C40.7339 45.3388 40.7569 46.9654 40.8027 48.3629C40.8485 49.7604 40.9172 50.9517 41.0089 51.9598C41.1005 52.9678 41.1921 53.8155 41.3067 54.4799C41.4212 55.1672 41.5358 55.7399 41.6732 56.1981V56.3356H34.0901V56.1981C34.2275 55.7399 34.3421 55.1672 34.4566 54.4799C34.5712 53.7926 34.6857 52.9678 34.7544 51.9598C34.8232 50.9517 34.8919 49.7604 34.9606 48.3629C35.0065 46.9654 35.0523 45.3388 35.0523 43.4831V20.0691H35.0294Z" fill="black"/>
<path d="M48.4317 46.6447C48.4317 44.9035 48.7983 43.4143 49.5085 42.1543C50.2187 40.8942 51.158 39.7946 52.3493 38.9011C53.5406 38.0076 54.8694 37.2745 56.3815 36.7246C57.8935 36.1748 59.4514 35.7395 61.078 35.4188C62.7046 35.098 64.3083 34.8918 65.8662 34.7544C67.447 34.6398 68.8903 34.5711 70.1962 34.5482V32.8529C70.1962 31.4095 70.0129 30.1495 69.6463 29.1185C69.2798 28.0647 68.7528 27.1941 68.0655 26.5068C67.3782 25.8195 66.5764 25.2926 65.6142 24.9718C64.652 24.6282 63.621 24.4678 62.4755 24.4678C61.6966 24.4678 60.9176 24.5365 60.1387 24.674C59.3827 24.8115 58.5808 25.0176 57.7561 25.3384C56.9313 25.6362 56.0607 26.0715 55.1672 26.5755C54.2508 27.1025 53.2886 27.7668 52.2348 28.5687L51.914 28.3625L54.1592 23.7347C54.8923 23.4139 55.6025 23.139 56.2898 22.9328C57 22.7266 57.7102 22.5434 58.4204 22.4288C59.1536 22.2914 59.8867 22.1997 60.6427 22.1539C61.3987 22.1081 62.2006 22.0623 63.0254 22.0623C65.3163 22.0623 67.2866 22.3372 68.9132 22.9099C70.5398 23.4598 71.8915 24.2387 72.9225 25.2009C73.9534 26.1861 74.7323 27.3086 75.2134 28.6145C75.6946 29.9204 75.9466 31.3179 75.9466 32.807V43.5289C75.9466 45.3846 75.9695 47.0112 76.0382 48.4087C76.084 49.8062 76.1528 50.9975 76.2444 52.0056C76.3131 53.0136 76.4277 53.8613 76.5422 54.5257C76.6568 55.213 76.7942 55.7857 76.9317 56.2439V56.3814H69.6234V56.2439C69.738 55.9003 69.8067 55.5108 69.8754 55.0526C69.9212 54.6173 69.99 54.0904 70.0129 53.4718C69.5547 53.8613 69.0049 54.2737 68.3863 54.686C67.7677 55.0984 67.0575 55.4879 66.2557 55.8086C65.4538 56.1523 64.5603 56.4272 63.5981 56.6334C62.6359 56.8396 61.5591 56.9541 60.3907 56.9541C56.5877 56.9541 53.6323 56.0606 51.5475 54.2737C49.4856 52.4638 48.4317 49.9208 48.4317 46.6447ZM70.2191 37.0912C68.2259 37.1141 66.3015 37.2287 64.4687 37.4348C62.6359 37.641 61.0093 38.0763 59.5889 38.7407C58.1684 39.4051 57.0458 40.3444 56.1982 41.5586C55.3505 42.7729 54.9381 44.3995 54.9381 46.4156C54.9381 49.0044 55.5796 50.9746 56.8855 52.3263C58.1684 53.678 59.9554 54.3653 62.2464 54.3653C63.3003 54.3653 64.2625 54.2278 65.1331 53.93C66.0036 53.6322 66.7597 53.2656 67.4241 52.8074C68.0884 52.3492 68.6612 51.8681 69.1194 51.3183C69.5776 50.7913 69.9212 50.2644 70.1733 49.7604C70.2191 48.9356 70.242 47.9963 70.242 46.9883C70.242 45.9803 70.242 44.8118 70.242 43.5289V37.0912H70.2191Z" fill="black"/>
<path d="M108.456 34.1817C108.456 31.295 107.883 29.1644 106.715 27.8127C105.546 26.461 103.988 25.7737 102.041 25.7737C101.331 25.7737 100.552 25.9112 99.6813 26.209C98.8107 26.5069 97.9172 26.8963 96.9779 27.4003C96.0615 27.9044 95.1451 28.4771 94.2287 29.1186C93.3123 29.783 92.4417 30.4703 91.6399 31.2263L91.5711 35.5334V43.4831C91.5711 45.3389 91.594 46.9655 91.6399 48.363C91.6857 49.7605 91.7544 50.9518 91.8461 51.9598C91.9377 52.9679 92.0293 53.8155 92.1439 54.4799C92.2584 55.1672 92.373 55.74 92.5105 56.1982V56.3356H84.9272V56.1982C85.0647 55.74 85.1793 55.1672 85.3167 54.4799C85.4313 53.7926 85.5458 52.9679 85.6145 51.9598C85.6833 50.9518 85.752 49.7605 85.8207 48.363C85.8666 46.9655 85.9124 45.3389 85.9124 43.4831V35.5334C85.9124 33.6777 85.8895 32.0511 85.8207 30.6536C85.7749 29.256 85.7062 28.0647 85.6145 27.0567C85.5458 26.0487 85.4313 25.201 85.3167 24.5366C85.2022 23.8493 85.0647 23.2995 84.9272 22.8184V22.6809H92.5105V22.8184C92.3272 23.3682 92.1897 24.0555 92.0981 24.9032C92.0064 25.7508 91.8919 26.8505 91.7773 28.2022C92.6708 27.4691 93.633 26.713 94.6869 25.957C95.7178 25.2239 96.8175 24.5595 97.9172 23.9638C99.0398 23.3911 100.162 22.91 101.331 22.5434C102.499 22.1769 103.622 21.9936 104.744 21.9936C106.463 21.9936 107.906 22.2914 109.097 22.8871C110.289 23.4827 111.274 24.2617 112.03 25.2239C112.786 26.1861 113.336 27.2858 113.679 28.5229C114.023 29.7601 114.183 31.0201 114.183 32.2802V43.4602C114.183 45.3159 114.206 46.9425 114.252 48.34C114.298 49.7376 114.367 50.9289 114.458 51.9369C114.55 52.945 114.641 53.7926 114.756 54.457C114.871 55.1443 114.985 55.7171 115.123 56.1753V56.3127H107.539V56.1753C107.677 55.7171 107.791 55.1443 107.929 54.457C108.043 53.7697 108.158 52.945 108.227 51.9369C108.295 50.9289 108.364 49.7376 108.433 48.34C108.479 46.9425 108.525 45.3159 108.525 43.4602V34.1817H108.456Z" fill="black"/>
<path d="M135.971 54.3883C136.635 54.3883 137.277 54.2737 137.918 54.0217C138.559 53.7926 139.178 53.449 139.797 53.0366C140.392 52.6242 140.988 52.1431 141.538 51.6162C142.088 51.0893 142.615 50.5165 143.096 49.9208L143.416 50.0812L141.286 55.3734C141.034 55.5109 140.69 55.6713 140.324 55.8545C139.934 56.0378 139.476 56.2211 138.949 56.3815C138.422 56.5418 137.781 56.6793 137.07 56.8167C136.337 56.9313 135.49 57 134.504 57C131.572 57 129.281 56.1982 127.654 54.6174C126.028 53.0366 125.203 50.5394 125.203 47.1716V25.2468L119.682 25.453V22.5663C120.369 22.6122 121.171 22.6351 122.11 22.658C123.049 22.6809 124.08 22.6809 125.203 22.6809C125.18 21.123 125.134 19.7484 125.088 18.5571C125.043 17.3658 124.974 16.3348 124.882 15.4413C124.814 14.5479 124.722 13.8147 124.607 13.1962C124.493 12.5776 124.378 12.0736 124.287 11.6612V11.5237H131.87V11.6612C131.732 12.0736 131.618 12.6005 131.503 13.1962C131.389 13.8147 131.297 14.5479 131.228 15.4413C131.16 16.3119 131.091 17.3429 131.022 18.5571C130.976 19.7484 130.93 21.1459 130.908 22.7038C132.282 22.6809 133.634 22.658 134.963 22.6122C136.291 22.5893 137.483 22.5434 138.582 22.4747C139.659 22.4289 140.576 22.3602 141.332 22.3143C142.088 22.2685 142.592 22.1998 142.821 22.1769L142.248 25.5217C141.125 25.4988 139.957 25.4759 138.743 25.4301C137.689 25.3843 136.498 25.3614 135.123 25.3385C133.771 25.3155 132.374 25.2926 130.908 25.2697V47.8819C130.908 49.2335 131.045 50.3332 131.343 51.1809C131.641 52.0286 132.03 52.693 132.488 53.1741C132.969 53.6552 133.496 53.9759 134.092 54.1592C134.711 54.2966 135.329 54.3883 135.971 54.3883Z" fill="black"/>
</svg>
