<svg width="52" height="52" viewBox="0 0 52 52" fill="none" xmlns="http://www.w3.org/2000/svg">
<circle opacity="0.2" cx="26" cy="26" r="26" fill="#E3EFD6"/>
<path d="M34.7305 8.00749L30.0621 8C24.8173 8 21.4279 11.4774 21.4279 16.8596V20.9445H16.7341C16.3285 20.9445 16 21.2734 16 21.679V27.5975C16 28.0031 16.3288 28.3316 16.7341 28.3316H21.4279V43.2659C21.4279 43.6715 21.7564 44 22.162 44H28.2861C28.6917 44 29.0202 43.6712 29.0202 43.2659V28.3316H34.5084C34.914 28.3316 35.2425 28.0031 35.2425 27.5975L35.2447 21.679C35.2447 21.4842 35.1672 21.2977 35.0297 21.1599C34.8923 21.0221 34.705 20.9445 34.5103 20.9445H29.0202V17.4817C29.0202 15.8174 29.4168 14.9724 31.5849 14.9724L34.7298 14.9713C35.135 14.9713 35.4634 14.6425 35.4634 14.2373V8.74155C35.4634 8.33669 35.1354 8.00824 34.7305 8.00749Z" fill="#43A047"/>
</svg>
