<svg width="52" height="52" viewBox="0 0 52 52" fill="none" xmlns="http://www.w3.org/2000/svg">
<circle opacity="0.2" cx="26" cy="26" r="26" fill="#E3EFD6"/>
<path d="M18.5177 20.9775H12.8966C12.6472 20.9775 12.445 21.1798 12.445 21.4292V39.4872C12.445 39.7367 12.6472 39.9388 12.8966 39.9388H18.5177C18.7672 39.9388 18.9693 39.7367 18.9693 39.4872V21.4292C18.9693 21.1798 18.7672 20.9775 18.5177 20.9775Z" fill="#43A047"/>
<path d="M15.7092 12C13.6639 12 12 13.6621 12 15.7051C12 17.749 13.6639 19.4118 15.7092 19.4118C17.7528 19.4118 19.4154 17.749 19.4154 15.7051C19.4155 13.6621 17.7528 12 15.7092 12Z" fill="#43A047"/>
<path d="M32.8152 20.5278C30.5576 20.5278 28.8887 21.4983 27.8765 22.6011V21.4283C27.8765 21.1789 27.6743 20.9766 27.4248 20.9766H22.0417C21.7922 20.9766 21.5901 21.1789 21.5901 21.4283V39.4863C21.5901 39.7358 21.7922 39.9379 22.0417 39.9379H27.6505C27.8999 39.9379 28.1021 39.7358 28.1021 39.4863V30.5518C28.1021 27.541 28.9199 26.3681 31.0186 26.3681C33.3043 26.3681 33.4859 28.2484 33.4859 30.7067V39.4864C33.4859 39.7359 33.6881 39.938 33.9376 39.938H39.5484C39.7979 39.938 40 39.7359 40 39.4864V29.5812C40 25.1044 39.1464 20.5278 32.8152 20.5278Z" fill="#43A047"/>
</svg>
