<svg width="52" height="52" viewBox="0 0 52 52" fill="none" xmlns="http://www.w3.org/2000/svg">
<circle opacity="0.2" cx="26" cy="26" r="26" fill="#E3EFD6"/>
<path d="M39.9262 20.9381C39.863 19.5035 39.631 18.5172 39.2987 17.6626C38.9558 16.7554 38.4284 15.9432 37.7373 15.268C37.0622 14.5823 36.2446 14.0495 35.3479 13.7121C34.4884 13.3797 33.5072 13.1477 32.0726 13.0845C30.6273 13.0159 30.1684 13 26.5027 13C22.8369 13 22.3781 13.0159 20.9381 13.0791C19.5035 13.1424 18.5172 13.3746 17.6628 13.7067C16.7554 14.0495 15.9432 14.577 15.268 15.268C14.5823 15.9432 14.0497 16.7607 13.7121 17.6574C13.3797 18.5172 13.1477 19.4981 13.0845 20.9327C13.0159 22.3781 13 22.8369 13 26.5027C13 30.1684 13.0159 30.6273 13.0791 32.0673C13.1424 33.5019 13.3746 34.4882 13.7069 35.3428C14.0497 36.25 14.5823 37.0622 15.268 37.7373C15.9432 38.423 16.7607 38.9558 17.6574 39.2933C18.5172 39.6256 19.4981 39.8576 20.9329 39.9209C22.3727 39.9843 22.8318 40 26.4975 40C30.1633 40 30.6221 39.9843 32.0621 39.9209C33.4967 39.8576 34.483 39.6256 35.3374 39.2933C37.152 38.5918 38.5866 37.1571 39.2882 35.3428C39.6203 34.483 39.8525 33.5019 39.9157 32.0673C39.979 30.6273 39.9949 30.1684 39.9949 26.5027C39.9949 22.8369 39.9895 22.3781 39.9262 20.9381ZM37.4948 31.9618C37.4367 33.2804 37.2152 33.9924 37.0306 34.4671C36.5769 35.6434 35.6434 36.5769 34.4672 37.0306C33.9924 37.2152 33.2752 37.4367 31.9618 37.4946C30.5377 37.5581 30.1105 37.5737 26.508 37.5737C22.9055 37.5737 22.4731 37.5581 21.0541 37.4946C19.7355 37.4367 19.0234 37.2152 18.5487 37.0306C17.9634 36.8143 17.4306 36.4715 16.9981 36.0231C16.5498 35.5853 16.2069 35.0578 15.9906 34.4725C15.806 33.9978 15.5845 33.2804 15.5266 31.9671C15.4631 30.543 15.4475 30.1157 15.4475 26.5132C15.4475 22.9107 15.4631 22.4782 15.5266 21.0595C15.5845 19.7408 15.806 19.0288 15.9906 18.5541C16.2069 17.9685 16.5498 17.4359 17.0035 17.0033C17.4411 16.5549 17.9685 16.2121 18.5541 15.9959C19.0288 15.8113 19.7462 15.5899 21.0595 15.5318C22.4836 15.4685 22.9109 15.4526 26.5132 15.4526C30.1211 15.4526 30.5482 15.4685 31.9671 15.5318C33.2857 15.5899 33.9978 15.8113 34.4725 15.9959C35.0579 16.2121 35.5907 16.5549 36.0231 17.0033C36.4715 17.4411 36.8143 17.9685 37.0306 18.5541C37.2152 19.0288 37.4367 19.746 37.4948 21.0595C37.5581 22.4836 37.5739 22.9107 37.5739 26.5132C37.5739 30.1157 37.5581 30.5377 37.4948 31.9618Z" fill="#43A047"/>
<path d="M26.5027 19.5669C22.6736 19.5669 19.5668 22.6735 19.5668 26.5028C19.5668 30.3322 22.6736 33.4388 26.5027 33.4388C30.3321 33.4388 33.4387 30.3322 33.4387 26.5028C33.4387 22.6735 30.3321 19.5669 26.5027 19.5669ZM26.5027 31.002C24.0185 31.002 22.0035 28.9872 22.0035 26.5028C22.0035 24.0185 24.0185 22.0037 26.5027 22.0037C28.9871 22.0037 31.0019 24.0185 31.0019 26.5028C31.0019 28.9872 28.9871 31.002 26.5027 31.002Z" fill="#43A047"/>
<path d="M35.3323 19.2926C35.3323 20.1868 34.6073 20.9118 33.7129 20.9118C32.8187 20.9118 32.0936 20.1868 32.0936 19.2926C32.0936 18.3982 32.8187 17.6733 33.7129 17.6733C34.6073 17.6733 35.3323 18.3982 35.3323 19.2926Z" fill="#43A047"/>
</svg>
