<svg width="162" height="57" viewBox="0 0 162 57" fill="none" xmlns="http://www.w3.org/2000/svg">
<path d="M155.123 33.0591H154.367V56.3356H155.123V33.0591Z" fill="#388E3C"/>
<path d="M155.123 43.6205L154.39 43.4143C155.352 40.0007 157.391 36.885 160.255 34.4107C160.324 34.342 160.851 33.9296 160.943 33.8838L161.011 34.7773C160.943 34.8231 160.828 34.9376 160.759 34.9835C158.01 37.3661 156.063 40.3444 155.123 43.6205Z" fill="#388E3C"/>
<path d="M154.413 43.6205L155.146 43.4143C154.184 40.0007 152.145 36.885 149.281 34.4107C149.213 34.342 148.686 33.9296 148.594 33.8838L148.525 34.7773C148.594 34.8231 148.709 34.9376 148.777 34.9835C151.526 37.3661 153.474 40.3444 154.413 43.6205Z" fill="#388E3C"/>
<path d="M154.963 0.0229492L154.734 30.1266C150.541 26.461 147.907 21.1459 147.907 15.1893C147.884 9.1182 150.633 3.68854 154.963 0.0229492Z" fill="#43A047"/>
<path d="M161.699 15.0289C161.699 20.871 159.156 26.1403 155.078 29.8059C154.986 29.8975 154.871 29.9891 154.757 30.0808L154.734 30.1037L154.963 0C155.078 0.0916399 155.169 0.183276 155.284 0.274915C159.247 3.96342 161.699 9.27854 161.699 15.0289Z" fill="#388E3C"/>
<path d="M154.711 30.1035L154.734 30.0806C154.734 30.0806 154.734 30.1035 154.711 30.1035Z" fill="#CC0D0D"/>
<path d="M0 9.20978C0.435289 9.2556 0.893489 9.30142 1.3746 9.34724C1.78698 9.39306 2.24517 9.41597 2.7721 9.43888C3.27612 9.43888 3.82596 9.46179 4.3758 9.46179C5.22347 9.46179 6.39188 9.37015 7.83521 9.14105C9.30145 8.93486 11.1572 8.82031 13.4023 8.82031C15.51 8.82031 17.4574 9.11814 19.2444 9.73671C21.0313 10.3553 22.5892 11.2488 23.8951 12.4401C25.201 13.6314 26.2319 15.0747 26.965 16.7701C27.6981 18.4654 28.0647 20.3898 28.0647 22.5663C28.0647 25.4759 27.492 27.996 26.3235 30.1266C25.1551 32.2572 23.5973 33.9754 21.6499 35.2813C19.7026 36.5872 17.4574 37.4807 14.9144 37.9618C12.3714 38.4429 9.71382 38.4658 6.94172 38.0534V43.506C6.94172 45.3617 6.96463 46.9883 7.03336 48.3858C7.07918 49.7833 7.14791 50.9746 7.23955 51.9827C7.30828 52.9907 7.42283 53.8384 7.53738 54.5028C7.65193 55.1901 7.78939 55.7628 7.90394 56.221V56.3585H0.0229079V56.221C0.160368 55.7628 0.274917 55.1901 0.412377 54.5028C0.526926 53.8155 0.641478 52.9907 0.733118 51.9827C0.824758 50.9746 0.893486 49.7833 0.939306 48.3858C0.985126 46.9883 1.00804 45.3617 1.00804 43.506V22.1081C1.00804 20.2524 0.985126 18.6258 0.939306 17.2283C0.893486 15.8308 0.824758 14.6394 0.733118 13.6085C0.641478 12.6005 0.549836 11.7528 0.412377 11.0655C0.297827 10.3782 0.160368 9.80544 0.0229079 9.34724V9.20978H0ZM6.94172 35.4646C9.09525 35.8541 11.0426 35.8999 12.8296 35.5792C14.6166 35.2584 16.1515 34.5711 17.4345 33.5402C18.7174 32.5092 19.7026 31.0888 20.4357 29.3247C21.1459 27.5607 21.5125 25.3842 21.5125 22.8183C21.5125 21.0542 21.3292 19.4276 20.9626 17.9614C20.5961 16.4951 20.0462 15.258 19.3131 14.25C18.58 13.2419 17.6636 12.4401 16.541 11.8902C15.4184 11.3404 14.1125 11.0426 12.6234 11.0426C11.6841 11.0426 10.8593 11.0884 10.1491 11.1571C9.4389 11.2259 8.86615 11.3175 8.38505 11.4091C7.8123 11.5237 7.3541 11.6382 6.96463 11.7757V35.4646H6.94172Z" fill="black"/>
<path d="M35.0294 20.0693C35.0294 18.2136 35.0065 16.587 34.9377 15.1895C34.8919 13.792 34.8232 12.6006 34.7315 11.5926C34.6399 10.5846 34.5482 9.73689 34.4337 9.07251C34.3191 8.38521 34.1817 7.83537 34.0671 7.35426V7.2168H41.6732V7.35426C41.5358 7.81246 41.4212 8.38521 41.3067 9.07251C41.1921 9.7598 41.1005 10.5846 41.0089 11.5926C40.9172 12.6006 40.8485 13.792 40.8027 15.1895C40.7569 16.587 40.7339 18.2136 40.7339 20.0693V43.4833C40.7339 45.339 40.7569 46.9656 40.8027 48.3631C40.8485 49.7606 40.9172 50.9519 41.0089 51.96C41.1005 52.968 41.1921 53.8157 41.3067 54.4801C41.4212 55.1674 41.5358 55.7401 41.6732 56.1983V56.3358H34.0901V56.1983C34.2275 55.7401 34.3421 55.1674 34.4566 54.4801C34.5712 53.7928 34.6857 52.968 34.7544 51.96C34.8232 50.9519 34.8919 49.7606 34.9606 48.3631C35.0065 46.9656 35.0523 45.339 35.0523 43.4833V20.0693H35.0294Z" fill="black"/>
<path d="M48.4317 46.6449C48.4317 44.9037 48.7983 43.4146 49.5085 42.1545C50.2187 40.8945 51.158 39.7948 52.3493 38.9013C53.5406 38.0078 54.8694 37.2747 56.3815 36.7249C57.8935 36.175 59.4514 35.7398 61.078 35.419C62.7046 35.0983 64.3083 34.8921 65.8662 34.7546C67.447 34.6401 68.8903 34.5713 70.1962 34.5484V32.8531C70.1962 31.4098 70.0129 30.1497 69.6463 29.1188C69.2798 28.0649 68.7528 27.1943 68.0655 26.507C67.3782 25.8197 66.5764 25.2928 65.6142 24.9721C64.652 24.6284 63.621 24.468 62.4755 24.468C61.6966 24.468 60.9176 24.5368 60.1387 24.6742C59.3827 24.8117 58.5808 25.0179 57.7561 25.3386C56.9313 25.6365 56.0607 26.0717 55.1672 26.5758C54.2508 27.1027 53.2886 27.7671 52.2348 28.5689L51.914 28.3627L54.1592 23.7349C54.8923 23.4142 55.6025 23.1393 56.2898 22.9331C57 22.7269 57.7102 22.5436 58.4204 22.4291C59.1536 22.2916 59.8867 22.2 60.6427 22.1541C61.3987 22.1083 62.2006 22.0625 63.0254 22.0625C65.3163 22.0625 67.2866 22.3374 68.9132 22.9102C70.5398 23.46 71.8915 24.2389 72.9225 25.2012C73.9534 26.1863 74.7323 27.3089 75.2134 28.6148C75.6946 29.9206 75.9466 31.3181 75.9466 32.8073V43.5291C75.9466 45.3848 75.9695 47.0115 76.0382 48.409C76.084 49.8065 76.1528 50.9978 76.2444 52.0058C76.3131 53.0139 76.4277 53.8615 76.5422 54.5259C76.6568 55.2132 76.7942 55.786 76.9317 56.2442V56.3816H69.6234V56.2442C69.738 55.9005 69.8067 55.5111 69.8754 55.0529C69.9212 54.6176 69.99 54.0906 70.0129 53.4721C69.5547 53.8615 69.0049 54.2739 68.3863 54.6863C67.7677 55.0987 67.0575 55.4881 66.2557 55.8089C65.4538 56.1525 64.5603 56.4274 63.5981 56.6336C62.6359 56.8398 61.5591 56.9544 60.3907 56.9544C56.5877 56.9544 53.6323 56.0609 51.5475 54.2739C49.4856 52.464 48.4317 49.921 48.4317 46.6449ZM70.2191 37.0914C68.2259 37.1143 66.3015 37.2289 64.4687 37.4351C62.6359 37.6413 61.0093 38.0766 59.5889 38.741C58.1684 39.4053 57.0458 40.3447 56.1982 41.5589C55.3505 42.7731 54.9381 44.3997 54.9381 46.4158C54.9381 49.0046 55.5796 50.9749 56.8855 52.3266C58.1684 53.6783 59.9554 54.3656 62.2464 54.3656C63.3003 54.3656 64.2625 54.2281 65.1331 53.9303C66.0036 53.6324 66.7597 53.2659 67.4241 52.8077C68.0884 52.3495 68.6612 51.8684 69.1194 51.3185C69.5776 50.7916 69.9212 50.2647 70.1733 49.7606C70.2191 48.9359 70.242 47.9966 70.242 46.9885C70.242 45.9805 70.242 44.8121 70.242 43.5291V37.0914H70.2191Z" fill="black"/>
<path d="M108.456 34.1818C108.456 31.2951 107.883 29.1645 106.715 27.8128C105.546 26.4611 103.988 25.7738 102.041 25.7738C101.331 25.7738 100.552 25.9113 99.6813 26.2091C98.8107 26.5069 97.9172 26.8964 96.9779 27.4004C96.0615 27.9044 95.1451 28.4772 94.2287 29.1187C93.3123 29.783 92.4417 30.4703 91.6399 31.2264L91.5711 35.5334V43.4832C91.5711 45.3389 91.594 46.9655 91.6399 48.363C91.6857 49.7605 91.7544 50.9519 91.8461 51.9599C91.9377 52.9679 92.0293 53.8156 92.1439 54.48C92.2584 55.1673 92.373 55.74 92.5105 56.1982V56.3357H84.9272V56.1982C85.0647 55.74 85.1793 55.1673 85.3167 54.48C85.4313 53.7927 85.5458 52.9679 85.6145 51.9599C85.6833 50.9519 85.752 49.7605 85.8207 48.363C85.8666 46.9655 85.9124 45.3389 85.9124 43.4832V35.5334C85.9124 33.6777 85.8895 32.0511 85.8207 30.6536C85.7749 29.2561 85.7062 28.0648 85.6145 27.0568C85.5458 26.0487 85.4313 25.201 85.3167 24.5367C85.2022 23.8494 85.0647 23.2995 84.9272 22.8184V22.681H92.5105V22.8184C92.3272 23.3683 92.1897 24.0555 92.0981 24.9032C92.0064 25.7509 91.8919 26.8506 91.7773 28.2023C92.6708 27.4691 93.633 26.7131 94.6869 25.9571C95.7178 25.224 96.8175 24.5596 97.9172 23.9639C99.0398 23.3912 100.162 22.91 101.331 22.5435C102.499 22.1769 103.622 21.9937 104.744 21.9937C106.463 21.9937 107.906 22.2915 109.097 22.8871C110.289 23.4828 111.274 24.2617 112.03 25.224C112.786 26.1862 113.336 27.2859 113.679 28.523C114.023 29.7601 114.183 31.0202 114.183 32.2802V43.4603C114.183 45.316 114.206 46.9426 114.252 48.3401C114.298 49.7376 114.367 50.9289 114.458 51.937C114.55 52.945 114.641 53.7927 114.756 54.4571C114.871 55.1444 114.985 55.7171 115.123 56.1753V56.3128H107.539V56.1753C107.677 55.7171 107.791 55.1444 107.929 54.4571C108.043 53.7698 108.158 52.945 108.227 51.937C108.295 50.9289 108.364 49.7376 108.433 48.3401C108.479 46.9426 108.525 45.316 108.525 43.4603V34.1818H108.456Z" fill="black"/>
<path d="M135.971 54.3885C136.635 54.3885 137.277 54.2739 137.918 54.0219C138.559 53.7928 139.178 53.4492 139.797 53.0368C140.392 52.6244 140.988 52.1433 141.538 51.6164C142.088 51.0894 142.615 50.5167 143.096 49.921L143.416 50.0814L141.286 55.3736C141.034 55.5111 140.69 55.6714 140.324 55.8547C139.934 56.038 139.476 56.2213 138.949 56.3816C138.422 56.542 137.781 56.6795 137.07 56.8169C136.337 56.9315 135.49 57.0002 134.504 57.0002C131.572 57.0002 129.281 56.1984 127.654 54.6176C126.028 53.0368 125.203 50.5396 125.203 47.1718V25.247L119.682 25.4532V22.5665C120.369 22.6124 121.171 22.6353 122.11 22.6582C123.049 22.6811 124.08 22.6811 125.203 22.6811C125.18 21.1232 125.134 19.7486 125.088 18.5573C125.043 17.366 124.974 16.335 124.882 15.4415C124.814 14.548 124.722 13.8149 124.607 13.1964C124.493 12.5778 124.378 12.0738 124.287 11.6614V11.5239H131.87V11.6614C131.732 12.0738 131.618 12.6007 131.503 13.1964C131.389 13.8149 131.297 14.548 131.228 15.4415C131.16 16.3121 131.091 17.3431 131.022 18.5573C130.976 19.7486 130.93 21.1461 130.908 22.704C132.282 22.6811 133.634 22.6582 134.963 22.6123C136.291 22.5894 137.483 22.5436 138.582 22.4749C139.659 22.4291 140.576 22.3603 141.332 22.3145C142.088 22.2687 142.592 22.2 142.821 22.1771L142.248 25.5219C141.125 25.499 139.957 25.4761 138.743 25.4303C137.689 25.3845 136.498 25.3615 135.123 25.3386C133.771 25.3157 132.374 25.2928 130.908 25.2699V47.882C130.908 49.2337 131.045 50.3334 131.343 51.1811C131.641 52.0287 132.03 52.6931 132.488 53.1742C132.969 53.6554 133.496 53.9761 134.092 54.1594C134.711 54.2968 135.329 54.3885 135.971 54.3885Z" fill="black"/>
</svg>
