<svg width="52" height="52" viewBox="0 0 52 52" fill="none" xmlns="http://www.w3.org/2000/svg">
<circle opacity="0.2" cx="26" cy="26" r="26" fill="#E3EFD6"/>
<path d="M17.0723 27.4755C17.1152 27.3694 17.5435 25.7336 17.5735 25.6228C16.9048 24.6228 16.1619 21.3482 16.7317 18.6901C17.3464 14.7901 21.5051 12.8728 25.4314 12.8728V12.8656C30.3473 12.8687 34.027 15.5869 34.0309 20.2683C34.0341 23.9326 31.8129 28.7761 28.0201 28.7761C28.0191 28.7761 28.0183 28.7761 28.0173 28.7761C26.6637 28.7761 24.9499 28.166 24.5004 27.5668C23.9818 26.8763 23.8544 26.0241 24.1285 25.1136C24.8001 22.9832 25.6564 20.4312 25.7564 18.7296C25.8491 17.1236 24.7024 16.0788 23.2155 16.0788C22.0965 16.0788 20.6432 16.7247 19.9189 18.5397C19.3207 20.0476 19.3335 21.6263 19.9581 23.3655C20.2016 24.0454 18.8785 28.4778 18.4547 29.9211C17.4015 33.5065 15.9597 38.0429 16.2679 40.5692L16.5655 43L18.06 41.0535C20.1282 38.3627 22.2667 31.4025 22.8365 29.7089C24.521 31.877 28.029 31.9392 28.438 31.9392C33.4617 31.9392 39.1582 26.9816 38.9966 20.0815C38.8549 14.0305 34.399 9 26.3925 9V9.00778C18.7767 9.00778 14.3317 13.0477 13.2436 18.1521C12.2471 22.8851 14.4633 26.4874 17.0723 27.4755Z" fill="#43A047"/>
</svg>
